<?xml version="1.0" encoding="utf-8"?>
<!-- Generator: Adobe Illustrator 27.3.1, SVG Export Plug-In . SVG Version: 6.00 Build 0)  -->
<svg version="1.1" id="Layer_1" xmlns="http://www.w3.org/2000/svg" xmlns:xlink="http://www.w3.org/1999/xlink" x="0px" y="0px"
	 viewBox="0 0 1920 1080" style="enable-background:new 0 0 1920 1080;" xml:space="preserve">
<style type="text/css">
	.st0{clip-path:url(#SVGID_00000128460072955657599980000003913511924744339640_);fill:#B5783F;}
	.st1{clip-path:url(#SVGID_00000128460072955657599980000003913511924744339640_);}
</style>
<g>
	<defs>
		<rect id="SVGID_1_" width="1920" height="1080"/>
	</defs>
	<clipPath id="SVGID_00000127743507017805204660000007096805836744945584_">
		<use xlink:href="#SVGID_1_"  style="overflow:visible;"/>
	</clipPath>
	<path style="clip-path:url(#SVGID_00000127743507017805204660000007096805836744945584_);fill:#B5783F;" d="M250.49,615.48
		c-17.96,16.56-43.78,24.98-70.71,24.98c-59.21,0-102.98-42.37-102.98-99.62c0-57.24,43.77-99.62,103.26-99.62
		c28.62,0,53.88,8.98,71.27,27.22l-10.1,10.66c-16.84-16.56-37.32-23.29-60.61-23.29c-50.51,0-87.55,36.48-87.55,85.02
		c0,48.54,37.04,85.03,87.27,85.03c20.2,0,39-4.77,54.72-17.12V541.4h15.43V615.48z"/>
	<polygon style="clip-path:url(#SVGID_00000127743507017805204660000007096805836744945584_);fill:#B5783F;" points="296.79,639.05 
		279.67,639.05 370.03,442.63 386.02,442.63 476.38,639.05 458.98,639.05 377.88,460.03 	"/>
	<polygon style="clip-path:url(#SVGID_00000127743507017805204660000007096805836744945584_);fill:#B5783F;" points="526.89,639.05 
		511.17,639.05 511.17,442.63 524.64,442.63 611.91,592.75 698.62,442.63 711.81,442.63 712.09,639.05 696.37,639.05 696.09,474.06 
		615.56,613.24 607.7,613.24 526.89,474.9 	"/>
	<path style="clip-path:url(#SVGID_00000127743507017805204660000007096805836744945584_);fill:#B5783F;" d="M779.43,439.54H911.6
		v14.31H779.43V439.54z M779.43,532.14H911.6v14.31H779.43V532.14z M779.43,639.05H911.6v-14.31H779.43V639.05z"/>
	<path style="clip-path:url(#SVGID_00000127743507017805204660000007096805836744945584_);" d="M967.16,442.63h132.17v14.31H967.16
		V442.63z M967.16,538.88h119.82v14.31H983.15v85.87h-15.99V538.88z"/>
	<polygon style="clip-path:url(#SVGID_00000127743507017805204660000007096805836744945584_);" points="1144.5,639.05 
		1144.5,442.63 1160.49,442.63 1160.49,624.74 1272.73,624.74 1272.73,639.05 	"/>
	<polygon style="clip-path:url(#SVGID_00000127743507017805204660000007096805836744945584_);" points="1294.34,639.05 
		1277.22,639.05 1367.58,442.63 1383.57,442.63 1473.93,639.05 1456.53,639.05 1375.44,460.03 	"/>
	<path style="clip-path:url(#SVGID_00000127743507017805204660000007096805836744945584_);" d="M1662.5,639.05h-18.24l-46.3-64.82
		c-5.61,0.56-11.51,1.12-17.96,1.12h-55.28v63.7h-15.99v-77.73H1580c40.97,0,63.14-19.36,63.14-52.19
		c0-33.11-22.17-52.19-63.14-52.19h-71.28v-14.31H1580c49.39,0,79.41,24.69,79.41,66.5c0,31.15-16.84,52.75-45.74,61.45
		L1662.5,639.05z"/>
	<path style="clip-path:url(#SVGID_00000127743507017805204660000007096805836744945584_);" d="M1711.04,439.54h132.17v14.31
		h-132.17V439.54z M1711.04,532.14h132.17v14.31h-132.17V532.14z M1711.04,639.05h132.17v-14.31h-132.17V639.05z"/>
</g>
</svg>
